<svg width="1600" height="900" viewBox="0 0 1600 900" fill="none" xmlns="http://www.w3.org/2000/svg">
  <rect width="1600" height="900" fill="#F6EFE8"/>
  <circle cx="260" cy="180" r="180" fill="#D8B7A2" fill-opacity="0.45"/>
  <circle cx="1320" cy="150" r="220" fill="#B88B74" fill-opacity="0.32"/>
  <circle cx="1220" cy="760" r="260" fill="#6D5A50" fill-opacity="0.18"/>
  <circle cx="470" cy="760" r="220" fill="#D7C0B4" fill-opacity="0.38"/>
  <path d="M0 620C220 560 380 500 560 530C760 565 840 700 1040 710C1230 720 1380 630 1600 600V900H0V620Z" fill="#A67C68" fill-opacity="0.16"/>
  <path d="M0 720C220 660 420 640 620 670C820 700 980 820 1240 810C1410 803 1500 760 1600 740V900H0V720Z" fill="#7E6153" fill-opacity="0.18"/>
  <rect x="1160" y="210" width="240" height="520" rx="120" fill="#FFFFFF" fill-opacity="0.18"/>
  <rect x="1230" y="260" width="100" height="420" rx="50" fill="#FFFFFF" fill-opacity="0.18"/>
  <rect x="320" y="170" width="190" height="320" rx="95" fill="#FFFFFF" fill-opacity="0.12"/>
  <rect x="380" y="220" width="70" height="220" rx="35" fill="#FFFFFF" fill-opacity="0.12"/>
</svg>
